<svg xmlns="http://www.w3.org/2000/svg" xmlns:xlink="http://www.w3.org/1999/xlink" width="500" zoomAndPan="magnify" viewBox="0 0 375 374.999991" height="500" preserveAspectRatio="xMidYMid meet" version="1.0"><defs><g/></defs><g fill="#000000" fill-opacity="1"><g transform="translate(-7.614208, 279.822454)"><g><path d="M 136.765625 -138.464844 C 136.765625 -120.660156 127.441406 -106.8125 98.054688 -106.8125 L 63.578125 -106.8125 L 63.578125 -78.273438 L 99.46875 -78.273438 C 132.527344 -78.273438 169.828125 -92.683594 169.828125 -138.464844 C 169.828125 -184.242188 131.679688 -197.804688 99.46875 -197.804688 L 63.578125 -197.804688 L 63.578125 -169.265625 L 98.054688 -169.265625 C 122.355469 -169.265625 136.765625 -159.9375 136.765625 -138.464844 Z M 52.84375 0 C 57.363281 0 58.777344 -1.128906 58.777344 -5.933594 L 58.777344 -197.804688 L 30.519531 -197.804688 C 25.996094 -197.804688 24.585938 -196.390625 24.585938 -191.871094 L 24.585938 -5.933594 C 24.585938 -1.128906 25.996094 0 30.519531 0 Z M 95.230469 -73.46875 L 141.007812 -5.933594 C 143.832031 -1.976562 146.65625 0 151.460938 0 L 172.371094 0 C 177.175781 0 180.847656 -2.542969 177.457031 -7.628906 L 129.984375 -77.144531 C 122.921875 -74.601562 115.292969 -73.46875 103.707031 -73.46875 Z M 95.230469 -73.46875 "/></g></g></g><g fill="#000000" fill-opacity="1"><g transform="translate(165.60536, 279.822454)"><g><path d="M 180.847656 0 C 185.089844 0 186.785156 -1.414062 183.675781 -5.933594 L 45.210938 -191.871094 C 42.105469 -196.390625 40.410156 -197.804688 36.453125 -197.804688 L 9.609375 -197.804688 C 5.367188 -197.804688 3.671875 -196.390625 6.78125 -191.871094 L 144.960938 -5.933594 C 148.636719 -1.414062 150.046875 0 154.003906 0 Z M 154.289062 -197.804688 C 150.332031 -197.804688 148.636719 -196.390625 145.246094 -191.871094 L 98.335938 -128.855469 L 117.269531 -103.140625 L 183.957031 -191.871094 C 187.347656 -196.390625 185.089844 -197.804688 181.132812 -197.804688 Z M 36.734375 0 C 40.972656 0 42.386719 -1.414062 45.777344 -5.933594 L 92.683594 -68.101562 L 73.46875 -93.816406 L 7.0625 -5.933594 C 3.957031 -1.414062 5.933594 0 9.890625 0 Z M 36.734375 0 "/></g></g></g></svg>